<svg xmlns="http://www.w3.org/2000/svg" width="181" height="157" viewBox="0 0 181 157" fill="none">
<path d="M90.8778 24.1577C97.3001 23.969 102.4 18.8742 102.589 12.4585C102.778 5.47678 97.1112 -0.184112 90.1222 0.00458442C83.6999 0.193281 78.5998 5.28808 78.4109 11.7038C78.222 18.6855 83.8888 24.3464 90.8778 24.1577ZM178.524 96.6171H175.124L151.134 50.1978C154.534 49.8204 157.935 48.4996 160.957 47.1787C165.49 45.103 166.435 39.0647 163.035 35.4795L162.846 35.2908C160.768 33.2152 157.557 32.4604 154.723 33.7812C152.079 34.9134 148.301 36.2343 144.712 36.2343C134.134 36.2343 129.412 24.1577 90.5 24.1577C51.5882 24.1577 46.8659 36.2343 36.2879 36.2343C32.5101 36.2343 28.9211 35.1021 26.2766 33.7812C23.4432 32.6491 20.2321 33.2152 18.1543 35.2908L17.9654 35.4795C14.5653 39.0647 15.5098 44.9143 20.0432 47.1787C23.0655 48.6883 26.4655 49.8204 29.8656 50.1978L5.87626 96.6171H2.4762C0.965058 96.6171 -0.168296 97.938 0.0205965 99.4476C2.09841 111.524 17.3987 120.77 36.099 120.77C54.7994 120.77 70.0996 111.524 72.1774 99.4476C72.3663 97.938 71.233 96.6171 69.7218 96.6171H66.3218L42.3325 50.3865C58.0105 49.0656 66.3218 41.1404 78.4109 41.1404V132.847C71.7997 132.847 66.3218 138.319 66.3218 144.923H52.9104C47.6215 144.923 42.1436 150.396 42.1436 157H138.856C138.856 150.396 133.379 144.923 125.445 144.923H114.678C114.678 138.319 109.2 132.847 102.589 132.847V41.1404C114.678 41.1404 122.989 49.0656 138.668 50.3865L114.678 96.6171H111.278C109.767 96.6171 108.634 97.938 108.823 99.4476C110.9 111.524 126.201 120.77 144.901 120.77C163.601 120.77 178.902 111.524 180.979 99.4476C181.168 97.938 180.035 96.6171 178.524 96.6171ZM54.2327 96.6171H17.9654L36.099 62.6518L54.2327 96.6171ZM126.767 96.6171L144.901 62.6518L163.035 96.6171H126.767Z" fill="black" fill-opacity="0.07"/>
</svg>