<svg width="228" height="294" viewBox="0 0 228 294" fill="none" xmlns="http://www.w3.org/2000/svg">
<path d="M30.4504 76.3174C25.9669 80.8009 18.7026 80.8132 14.2191 76.3174L-1.75491 60.3434C-6.23229 55.8599 -6.22004 48.5957 -1.75491 44.1061L38.566 3.79744C43.0372 -0.68606 50.3015 -0.68606 54.785 3.79744L70.7651 19.7714C75.2363 24.2549 75.2363 31.5192 70.7651 35.9904L30.4504 76.3174Z" fill="#262627"/>
<path d="M125.915 173.57C121.437 178.035 114.173 178.035 109.696 173.57L93.7155 157.584C89.232 153.113 89.232 145.842 93.7155 141.359L134.036 101.038C138.514 96.5667 145.778 96.5545 150.261 101.038L166.235 117.012C170.719 121.495 170.707 128.76 166.235 133.243L125.915 173.57Z" fill="#262627"/>
<path d="M-57.1127 177.404L-40.8998 161.173C-36.4041 156.702 -29.1582 156.702 -24.6808 161.173L-17.5697 168.278L51.0609 99.6353L36.1956 84.7637L77.4352 43.5364L92.3067 58.4079L111.245 77.3341L125.786 91.8749L84.5524 133.114L69.9933 118.58L1.37495 187.21L7.79395 193.636C12.2775 198.101 12.2897 205.371 7.79395 209.855L-8.41892 226.074C-12.9147 230.569 -20.1728 230.569 -24.6502 226.074L-57.1066 193.629C-61.5962 189.14 -61.5962 181.888 -57.1127 177.404Z" fill="#262627"/>
<path d="M62.7597 226.705C62.7597 219.361 68.7132 213.395 76.0693 213.395H179.998C187.348 213.395 193.308 219.361 193.308 226.705V248.307H222.481V293.565H35.3136V248.307H62.7597V226.705Z" fill="#262627"/>
</svg>
