<svg width="45" height="39" viewBox="0 0 45 39" fill="none" xmlns="http://www.w3.org/2000/svg">
<path d="M22.552 6.00114C24.1457 5.95426 25.4114 4.68864 25.4582 3.09489C25.5051 1.36051 24.0989 -0.0457362 22.3645 0.00113884C20.7707 0.0480138 19.5051 1.31364 19.4582 2.90739C19.4114 4.64176 20.8176 6.04801 22.552 6.00114ZM44.302 24.0011H43.4582L37.5051 12.4699C38.3489 12.3761 39.1926 12.048 39.9426 11.7199C41.0676 11.2043 41.302 9.70426 40.4582 8.81364L40.4114 8.76676C39.8957 8.25114 39.0989 8.06364 38.3957 8.39176C37.7395 8.67301 36.802 9.00114 35.9114 9.00114C33.2864 9.00114 32.1145 6.00114 22.4582 6.00114C12.802 6.00114 11.6301 9.00114 9.00511 9.00114C8.06761 9.00114 7.17699 8.71989 6.52074 8.39176C5.81761 8.11051 5.02074 8.25114 4.50511 8.76676L4.45824 8.81364C3.61449 9.70426 3.84886 11.1574 4.97386 11.7199C5.72386 12.0949 6.56761 12.3761 7.41136 12.4699L1.45824 24.0011H0.614486C0.239486 24.0011 -0.0417638 24.3293 0.00511118 24.7043C0.520736 27.7043 4.31761 30.0011 8.95824 30.0011C13.5989 30.0011 17.3957 27.7043 17.9114 24.7043C17.9582 24.3293 17.677 24.0011 17.302 24.0011H16.4582L10.5051 12.5168C14.3957 12.1886 16.4582 10.2199 19.4582 10.2199V33.0011C17.8176 33.0011 16.4582 34.3605 16.4582 36.0011H13.1301C11.8176 36.0011 10.4582 37.3605 10.4582 39.0011H34.4582C34.4582 37.3605 33.0989 36.0011 31.1301 36.0011H28.4582C28.4582 34.3605 27.0989 33.0011 25.4582 33.0011V10.2199C28.4582 10.2199 30.5207 12.1886 34.4114 12.5168L28.4582 24.0011H27.6145C27.2395 24.0011 26.9582 24.3293 27.0051 24.7043C27.5207 27.7043 31.3176 30.0011 35.9582 30.0011C40.5989 30.0011 44.3957 27.7043 44.9114 24.7043C44.9582 24.3293 44.677 24.0011 44.302 24.0011ZM13.4582 24.0011H4.45824L8.95824 15.5636L13.4582 24.0011ZM31.4582 24.0011L35.9582 15.5636L40.4582 24.0011H31.4582Z" fill="#FFFFFF"/>
</svg>
