<svg width="48" height="56" viewBox="0 0 48 56" fill="none" xmlns="http://www.w3.org/2000/svg">
<g filter="url(#filter0_d_125_183)">
<path d="M36.4973 26.8193C34.9253 30.0045 32.7974 33.1803 30.6173 36.0301C28.444 38.8711 26.2633 41.3304 24.6231 43.0814C24.4051 43.3141 24.197 43.534 24 43.7402C23.803 43.534 23.5949 43.3141 23.3769 43.0814C21.7367 41.3304 19.556 38.8711 17.3827 36.0301C15.2026 33.1803 13.0747 30.0045 11.5027 26.8193C9.91441 23.6012 9 20.5857 9 18C9 9.71573 15.7157 3 24 3C32.2843 3 39 9.71573 39 18C39 20.5857 38.0856 23.6012 36.4973 26.8193ZM24 48C24 48 42 30.9411 42 18C42 8.05887 33.9411 0 24 0C14.0589 0 6 8.05887 6 18C6 30.9411 24 48 24 48Z" fill="#9b0a0d"/>
<path d="M24 24C20.6863 24 18 21.3137 18 18C18 14.6863 20.6863 12 24 12C27.3137 12 30 14.6863 30 18C30 21.3137 27.3137 24 24 24ZM24 27C28.9706 27 33 22.9706 33 18C33 13.0294 28.9706 9 24 9C19.0294 9 15 13.0294 15 18C15 22.9706 19.0294 27 24 27Z" fill="#9b0a0d"/>
</g>
<defs>
<filter id="filter0_d_125_183" x="-4" y="0" width="56" height="56" filterUnits="userSpaceOnUse" color-interpolation-filters="sRGB">
<feFlood flood-opacity="0" result="BackgroundImageFix"/>
<feColorMatrix in="SourceAlpha" type="matrix" values="0 0 0 0 0 0 0 0 0 0 0 0 0 0 0 0 0 0 127 0" result="hardAlpha"/>
<feOffset dy="4"/>
<feGaussianBlur stdDeviation="2"/>
<feComposite in2="hardAlpha" operator="out"/>
<feColorMatrix type="matrix" values="0 0 0 0 0 0 0 0 0 0 0 0 0 0 0 0 0 0 0.25 0"/>
<feBlend mode="normal" in2="BackgroundImageFix" result="effect1_dropShadow_125_183"/>
<feBlend mode="normal" in="SourceGraphic" in2="effect1_dropShadow_125_183" result="shape"/>
</filter>
</defs>
</svg>
