<svg width="48" height="48" viewBox="0 0 48 48" fill="none" xmlns="http://www.w3.org/2000/svg">
<path d="M10.9616 3.98547C10.2103 3.01948 8.78235 2.93058 7.91701 3.79592L4.81524 6.89769C3.36481 8.34812 2.83161 10.403 3.46531 12.2054C6.01013 19.4437 10.1765 26.2401 15.9682 32.0318C21.7599 37.8235 28.5563 41.9899 35.7946 44.5347C37.597 45.1684 39.6519 44.6352 41.1023 43.1848L44.2041 40.083C45.0694 39.2177 44.9805 37.7897 44.0145 37.0384L37.096 31.6573C36.6025 31.2735 35.9599 31.1378 35.3534 31.2894L28.7862 32.9312C27.0024 33.3772 25.1155 32.8545 23.8153 31.5544L16.4456 24.1847C15.1455 22.8845 14.6228 20.9976 15.0688 19.2138L16.7106 12.6466C16.8622 12.0401 16.7266 11.3975 16.3427 10.904L10.9616 3.98547ZM5.65432 1.53323C7.88066 -0.693116 11.5545 -0.464391 13.4875 2.0209L18.8686 8.93948C19.8561 10.2091 20.2051 11.8623 19.8149 13.4227L18.1731 19.9899C17.9998 20.6832 18.203 21.4166 18.7083 21.922L26.078 29.2917C26.5834 29.797 27.3168 30.0002 28.0101 29.8269L34.5773 28.1851C36.1377 27.795 37.7909 28.1439 39.0605 29.1314L45.9791 34.5125C48.4644 36.4455 48.6931 40.1193 46.4668 42.3457L43.365 45.4474C41.1458 47.6666 37.8266 48.641 34.7332 47.5535C27.0526 44.8532 19.8431 40.4322 13.7055 34.2945C7.56779 28.1568 3.14685 20.9474 0.446514 13.2667C-0.641047 10.1734 0.33339 6.85416 2.55255 4.635L5.65432 1.53323Z" fill="#9b0a0d"/>
</svg>
