<svg width="22" height="22" viewBox="0 0 22 22" fill="none" xmlns="http://www.w3.org/2000/svg">
<path d="M18.7018 3.19886C16.6476 1.13424 13.9087 0 10.9921 0C4.98645 0 0.0940839 4.89237 0.088857 10.8981C0.088857 12.8216 0.590638 14.6928 1.54193 16.3497L0 22L5.78093 20.4842C7.37513 21.3519 9.16796 21.8118 10.9921 21.8118H10.9974C17.0031 21.8118 21.8954 16.9195 21.9006 10.9085C21.8954 7.99715 20.7612 5.25826 18.7018 3.19886ZM10.9921 19.9667C9.36135 19.9667 7.76715 19.5277 6.3768 18.7018L6.04751 18.5032L2.61867 19.4022L3.53337 16.057L3.31907 15.712C2.40959 14.2694 1.93395 12.602 1.93395 10.8928C1.93395 5.90639 6.00046 1.83987 10.9974 1.83987C13.4174 1.83987 15.6911 2.78594 17.4055 4.49513C19.1147 6.20955 20.0556 8.48325 20.0556 10.9033C20.0503 15.9054 15.9838 19.9667 10.9921 19.9667ZM15.9629 13.1822C15.6911 13.0463 14.353 12.3877 14.1021 12.2937C13.8512 12.2048 13.6683 12.1578 13.4906 12.4296C13.3076 12.7014 12.785 13.3181 12.6282 13.4958C12.4713 13.6788 12.3093 13.6997 12.0375 13.5638C11.7657 13.4279 10.8876 13.1404 9.84745 12.21C9.03728 11.4887 8.49369 10.5949 8.33165 10.3231C8.17485 10.0513 8.31597 9.90497 8.45187 9.76907C8.57209 9.64885 8.72367 9.45023 8.85957 9.29342C8.99547 9.13661 9.04251 9.02162 9.13137 8.83868C9.22022 8.65574 9.17841 8.49893 9.11046 8.36303C9.04251 8.22713 8.49891 6.88382 8.26893 6.34022C8.0494 5.80708 7.82465 5.88026 7.65739 5.87503C7.50058 5.86458 7.31764 5.86458 7.1347 5.86458C6.95176 5.86458 6.65905 5.93253 6.40816 6.20432C6.15727 6.47612 5.45687 7.13471 5.45687 8.47802C5.45687 9.82134 6.4343 11.1124 6.57019 11.2953C6.70609 11.4783 8.48846 14.2276 11.2221 15.4089C11.8703 15.6911 12.3773 15.8584 12.7745 15.9838C13.4279 16.1929 14.0185 16.1616 14.4889 16.0936C15.0116 16.0152 16.0988 15.435 16.3288 14.7973C16.5535 14.1597 16.5535 13.6161 16.4856 13.5011C16.4176 13.3861 16.2347 13.3181 15.9629 13.1822Z" fill="white"/>
</svg>
